
<global>
amp_veltrack=0
ampeg_release=0.35
</global>

<group>
group_label=Group_0-42
lpc_hicc1=42
lpc_locc1=0

<region>
hikey=B3
hivel=127
lokey=A#3
loop_end=154515
loop_mode=loop_continuous
loop_start=65690
loop_xfade=10763
lovel=1
lpc=cyhnQq2UTMO+k5VDuD90wzGRGUM/ZtjCq72SQjo0IcKtnrxBH9WMwcouakHHnQPBDGAIwCGU20ACBuW/GkmywB16zEDGU4G/+w52wJvN70CV1EDBvy1UQajpBMHVwRJA
lpc_rms=-42.95
pitch_keycenter=A#3
sample=Trumpet_Trill_Whole_PP_A#3.opus
</region>

<region>
hikey=B4
hivel=127
lokey=A#4
loop_end=156341
loop_mode=loop_continuous
loop_start=66467
loop_xfade=10890
lovel=1
lpc=6LpeQupLUsNo2q9DVD+vw63Nc0OEgwPDgCtbQkM2f8H4LflASxZQwQl/l0Etj5TBHme6QC3MKUHt11XBxAKiQERWF79dEC9AdAvlwL9jcEGQFb/BO1/PQVslisGUVKlA
lpc_rms=-40.34
pitch_keycenter=A#4
sample=Trumpet_Trill_Whole_PP_A#4.opus
</region>

<region>
hikey=B5
hivel=127
lokey=A#5
loop_end=149914
loop_mode=loop_continuous
loop_start=63735
loop_xfade=10442
lovel=1
lpc=6cUdQtEn7MIAySNDLyMIw+5ZsEK2p2nC4MgwQsfOAsKPHexBjvTPwTm0lEHVYd3ATN5LQICZUsBIlpxAtaiNwP/S8kDUcKXAeUMCwI8KHkFJ6TPBeZZTQXsiTsGQ8sJA
lpc_rms=-33.46
pitch_keycenter=A#5
sample=Trumpet_Trill_Whole_PP_A#5.opus
</region>

<region>
hikey=C#4
hivel=127
lokey=C4
loop_end=154087
loop_mode=loop_continuous
loop_start=65509
loop_xfade=10733
lovel=1
lpc=ZP1oQoF3S8NIm45D3HJPw/Cm1kKZWJzC26p8QifgEMKGqqdBefqZwbTBnkEoQYHBh+rgQLbcpj8BwBDABAJePp10M8AimuNA7IcKwQ+2CEE/lAjBlxoSQTCj6sAF2SlA
lpc_rms=-43.02
sample=Trumpet_Trill_Whole_PP_C4.opus
</region>

<region>
hikey=C#5
hivel=127
lokey=C5
loop_end=156195
loop_mode=loop_continuous
loop_start=66405
loop_xfade=10880
lovel=1
lpc=uHiVQrNYg8OyMrxD1I+OwwdwF0My5sTCGUuBQu95r8F6x79AktKIwX/6+kHZ3vLBt4pKQUmeMkDaKKS/WsdJwMLqfMCaYW1BGNt2wY6OCUGp5T/BWfHfQaex7MGPnTlB
lpc_rms=-40.42
pitch_keycenter=C5
sample=Trumpet_Trill_Whole_PP_C5.opus
</region>

<region>
hikey=F6
hivel=127
lokey=C6
loop_end=151162
loop_mode=loop_continuous
loop_start=64265
loop_xfade=10529
lovel=1
lpc=DFchQgmW5MKTVhhDIqYBwzHbxkLsVZ7CqNp+QsN0QcJu3SNCIzcNwpPYCkIGzN7Bqt6kQQWmX8F8/G9BLEZzwUyXk0HSEoTBr1OBQXZujsGD2gNBVKZdQZbnncGYxQ5B
lpc_rms=-32.48
pitch_keycenter=C6
sample=Trumpet_Trill_Whole_PP_C6.opus
</region>

<region>
hikey=D#4
hivel=127
lokey=D4
loop_end=154374
loop_mode=loop_continuous
loop_start=65631
loop_xfade=10753
lovel=1
lpc=GAN5QsjQY8PCBqxDaLmLw/V6G0PWbb7CAlB6QptXzsEJmMxA2r3KwJtm3kB9684/7oROwfU0akHRObnAQZCRv0Qesb0TCFJAdRZ7wOm47z9mwRFAZpuRwFEcOkD47x2/
lpc_rms=-43.49
pitch_keycenter=D4
sample=Trumpet_Trill_Whole_PP_D4.opus
</region>

<region>
hikey=D#5
hivel=127
lokey=D5
loop_end=157285
loop_mode=loop_continuous
loop_start=66868
loop_xfade=10956
lovel=1
lpc=6IhdQj9mNsNcznxDnCBLwy2IBUMYqLXCeFZPQs2e6MH3qvFBJpzmwRMcaUGYorO9EbOowCA5s0BafI++NOEawYXRVEHTiHrAssURwT6fikHqQafBROi9QV9NncEhlPtA
lpc_rms=-41.69
pitch_keycenter=D5
sample=Trumpet_Trill_Whole_PP_D5.opus
</region>

<region>
hikey=F4
hivel=127
lokey=E4
loop_end=154187
loop_mode=loop_continuous
loop_start=65551
loop_xfade=10740
lovel=1
lpc=zgOCQhQtbcNcM7JDNQaOw8H5EUOm2ZvCPixLQgprv8EfYghBul8HwXBpM0Fid9nAnnNRwOVc/ECibqK/pMO5wFHQikAH71S+ZXs1wHpp60AQNCHBkbkJQSlvocDrdsw/
lpc_rms=-43.42
pitch_keycenter=E4
sample=Trumpet_Trill_Whole_PP_E4.opus
</region>

<region>
hikey=F5
hivel=127
lokey=E5
loop_end=157055
loop_mode=loop_continuous
loop_start=66770
loop_xfade=10940
lovel=1
lpc=ECSPQsfPd8OCrrtDHBynwzMVYkOZFBbDhe++QhTLXcJElhlC1waYwTh998Amp5pBal8UwYZZqcD5Rn9BnaCfwYsPlkF/axzBtEmswEKinUHGstHBmNDWQQ1mlcHkwdtA
lpc_rms=-37.97
pitch_keycenter=E5
sample=Trumpet_Trill_Whole_PP_E5.opus
</region>

<region>
hikey=G3
hivel=127
lokey=F#3
loop_end=157659
loop_mode=loop_continuous
loop_start=67027
loop_xfade=10982
lovel=1
lpc=ZmUfQobj/cIcPiFDwNfjwoHFkUI8B1zC8VzpQek//cC0ez4/fM4dvUm6yD/nNmTAFvvGQAQBA8EuTuBAzekgwD3RyL840BZAX90GwFVrHUBdXnbA8VSwQCW1isBMFKw/
lpc_rms=-48.16
pitch_keycenter=F#3
sample=Trumpet_Trill_Whole_PP_F#3.opus
</region>

<region>
hikey=G4
hivel=127
lokey=F#4
loop_end=155894
loop_mode=loop_continuous
loop_start=66277
loop_xfade=10859
lovel=1
lpc=fESJQrgIgMOiJMdD5YCow0s+PkMZddLC+sBwQq8nocFXjIRAEC0bwSHIYkF+TRXBe8gPvywLyUC4JKe/q8zpwObkBkFvUoC/NrDqwFPaH0F90gjBMBkGQUrK4cD9My1A
lpc_rms=-41.86
pitch_keycenter=F#4
sample=Trumpet_Trill_Whole_PP_F#4.opus
</region>

<region>
hikey=G5
hivel=127
lokey=F#5
loop_end=154658
loop_mode=loop_continuous
loop_start=65751
loop_xfade=10773
lovel=1
lpc=oxaLQlWMZcNLbaVDpySKw3+XLUMBOd7CU8+bQnO0X8IC6DFCRgIHwrc8t0G2qobBc9qAQUwp+MAlHTzAu3zYQG0ngMDvovg/rcS+v45I+ECjCYzBSevNQVmPocFYuuRA
lpc_rms=-36.05
pitch_keycenter=F#5
sample=Trumpet_Trill_Whole_PP_F#5.opus
</region>

<region>
hikey=A3
hivel=127
lokey=G#3
loop_end=156602
loop_mode=loop_continuous
loop_start=66578
loop_xfade=10908
lovel=1
lpc=5jdDQgebIcP101NDVWUTw67wqEJ8I3HC3B/nQW0FPMB5zMK/U5fuv/qS1kBDzh3B6pkbQchvBsE5Gr5A7GsCwAA42799PIlAYGiowAxnkkB4e6PANDHcQKCGrMCWA9k/
lpc_rms=-46.51
pitch_keycenter=G#3
sample=Trumpet_Trill_Whole_PP_G#3.opus
</region>

<region>
hikey=A4
hivel=127
lokey=G#4
loop_end=154005
loop_mode=loop_continuous
loop_start=65474
loop_xfade=10727
lovel=1
lpc=Or6UQor2iMN1idJDQ5uzwwzwVEOveerCIQtgQmVFR8F0tLy/mITSwNHXoEE7WaXBd9jlP+IDa0FoqQfBamGXwClauUARpAM/MdStwLkE2kA5chPBKomDQXw4hsHWidBA
lpc_rms=-40.91
pitch_keycenter=G#4
sample=Trumpet_Trill_Whole_PP_G#4.opus
</region>

<region>
hikey=A5
hivel=127
lokey=G#5
loop_end=155525
loop_mode=loop_continuous
loop_start=66120
loop_xfade=10833
lovel=1
lpc=M00NQkzlz8K1VwhDoxTVwsJ9k0JRXHbCx55DQj/m18HaIIBBOYqDwUOYkEHnClXBAWwnQfrwCcGliM9ApE9VwAvokED500HAdDIEP3SIlr9fx81AoKNtwBBBO8CGX0lA
lpc_rms=-36.89
pitch_keycenter=G#5
sample=Trumpet_Trill_Whole_PP_G#5.opus
</region>
</group>

<group>
group_label=Group_87-127
lpc_hicc1=127
lpc_locc1=87

<region>
hikey=B3
hivel=127
lokey=A#3
loop_end=157482
loop_mode=loop_continuous
loop_start=66952
loop_xfade=10969
lovel=1
lpc=5XLYQca5zcIW+zlDgrtbw3j2SUOvRR/Dry7dQhzjicKF9yNCCwC3wePoLEHoPo/Ar6cKQPFotL/XmBdAfbWDwBFfhECGO/G/V8IbvyCtIEBQ6V7AT6AxQMN9pb+wx6s+
lpc_rms=-36.94
pitch_keycenter=A#3
sample=Trumpet_Trill_Whole_FF_A#3.opus
</region>

<region>
hikey=B4
hivel=127
lokey=A#4
loop_end=155401
loop_mode=loop_continuous
loop_start=66067
loop_xfade=10824
lovel=1
lpc=qkz1QcI56sJ5glVDS91+w80ebUO950DDFOsQQ9NRz8JMApdCmXxfwnsKGELhB7PBNhweQYdCLUB4jz/BAtpLQdKyBcFOr8ZASR4EwWZeQkHfOmjBgLBWQSqeCMFe0y5A
lpc_rms=-32.73
pitch_keycenter=A#4
sample=Trumpet_Trill_Whole_FF_A#4.opus
</region>

<region>
hikey=B5
hivel=127
lokey=A#5
loop_end=149090
loop_mode=loop_continuous
loop_start=63384
loop_xfade=10385
lovel=1
lpc=2Q16QVr3IcLOYmVClUFjwuXATkLkSi3Cm2UJQi2Au8EyWYpBz0pFwaOiHUHtVdHAm2TVQCYZp8BNgX5AJpM6vynGBT5OC9s/aH+8v0MqnD819ts/o13Ov3e9eT7186g+
lpc_rms=-26.54
pitch_keycenter=A#5
sample=Trumpet_Trill_Whole_FF_A#5.opus
</region>

<region>
hikey=C#4
hivel=127
lokey=C4
loop_end=155927
loop_mode=loop_continuous
loop_start=66291
loop_xfade=10861
lovel=1
lpc=jg0AQn4j9MI2d1ZDpi9sw+tyQ0MP/wzDcsG8QmZFbMJ4URZCc4rEwSpsYEGyINTAHxsTQA9Wlj81zOu/mJ/Dv8KdgUBoGQ7AYHiLv6E8OkDyS3rAuLONQE37T8Cr/Ig/
lpc_rms=-38.15
sample=Trumpet_Trill_Whole_FF_C4.opus
</region>

<region>
hikey=C#5
hivel=127
lokey=C5
loop_end=155873
loop_mode=loop_continuous
loop_start=66268
loop_xfade=10857
lovel=1
lpc=6hf3QTOk58Krq0pD2Lxfw26JOEOZ7QDDtLmeQnB9HsLoH35B52TywGrEzUDR0ffALQcKQdZCdsD7ZB3AzG9RQKy+CL8dmc2+VPOBv1KxpEAiGjXB681qQWnoK8HaqmBA
lpc_rms=-32.55
pitch_keycenter=C5
sample=Trumpet_Trill_Whole_FF_C5.opus
</region>

<region>
hikey=F6
hivel=127
lokey=C6
loop_end=141818
loop_mode=loop_continuous
loop_start=60292
loop_xfade=9878
lovel=1
lpc=bkiTQVXNQsIDgYpC2jKGwhEHZ0I2izPC9CUGQuDapsGB3XBBAPktwfeDJ0H2p+3AP5DkQJeUk8BpcJtAZCNRwAGuoUDjgofAvrvFQNY5AsEB7xNBFei5wKTh+z9GFAs/
lpc_rms=-25.91
pitch_keycenter=C6
sample=Trumpet_Trill_Whole_FF_C6.opus
</region>

<region>
hikey=D#4
hivel=127
lokey=D4
loop_end=156885
loop_mode=loop_continuous
loop_start=66698
loop_xfade=10928
lovel=1
lpc=d8D2QbTL78KwAlxDhtKAwwEwYkMs7SXDflTYQo7XhMIH8ShC/5fFwayR/kDEFyRAn3upwJ0pw0CK0qXAuuflP3g7kb8UkZtAkdP4wOdFDUH4uBnBjwwJQauGmMDK3p8/
lpc_rms=-36.21
pitch_keycenter=D4
sample=Trumpet_Trill_Whole_FF_D4.opus
</region>

<region>
hikey=D#5
hivel=127
lokey=D5
loop_end=157928
loop_mode=loop_continuous
loop_start=67142
loop_xfade=11000
lovel=1
lpc=Bo/8QZe048LlyUFDuLdTw/5IMUN/HP/CXzKoQr0qUcIWUQdCwLHLwYkBukGlG7/BNrLIQZAvtMFDc5BBKG50wSVMd0FMV4HBjnZ2QeleJsEsuSk+rCU0QUNtTcGmCKpA
lpc_rms=-32.57
pitch_keycenter=D5
sample=Trumpet_Trill_Whole_FF_D5.opus
</region>

<region>
hikey=F4
hivel=127
lokey=E4
loop_end=157213
loop_mode=loop_continuous
loop_start=66837
loop_xfade=10951
lovel=1
lpc=SsMDQvbV/8LCZmpDIFiJw6UuckOFUzHDa2bjQroeicJcgCVC6xiLwTGjqMD7LHhBzJVDwXuEg0Dcp6pAgnlbwSS4g0ESQ0LBquhfQBNvvED5pjTB0RwtQXOAy8ABPvA/
lpc_rms=-35.49
pitch_keycenter=E4
sample=Trumpet_Trill_Whole_FF_E4.opus
</region>

<region>
hikey=F5
hivel=127
lokey=E5
loop_end=155107
loop_mode=loop_continuous
loop_start=65942
loop_xfade=10804
lovel=1
lpc=QzcMQi4b6cLBEjpDkAREwy6gJkMrJP7C2Mi1QvKidsLUyi1CbsANwoWAAkJurMPBSksdQSZn0EAwC1LBbS4BQcCuer8foA5AX7GxwHfhsUAqVsnAgrM/QTkEScHl571A
lpc_rms=-31.54
pitch_keycenter=E5
sample=Trumpet_Trill_Whole_FF_E5.opus
</region>

<region>
hikey=G3
hivel=127
lokey=F#3
loop_end=157301
loop_mode=loop_continuous
loop_start=66875
loop_xfade=10957
lovel=1
lpc=dCuqQdvtl8IEnAJDXjwXw9dSD0PMFPfCyZfHQmP2mcLrInBCuWZCworMHkLvjfvBdX+7QcHzf8FggjRBzdAkwVlaLUEnlybB6yITQf7f88AqKp1Ab67Qv/0Xyr2oFhw+
lpc_rms=-36.13
pitch_keycenter=F#3
sample=Trumpet_Trill_Whole_FF_F#3.opus
</region>

<region>
hikey=G4
hivel=127
lokey=F#4
loop_end=157247
loop_mode=loop_continuous
loop_start=66852
loop_xfade=10953
lovel=1
lpc=uLPdQYr71cJf6UdDDKV4w+NFckMtg0jDa24SQ9H2ysKU35VCEexlwlTyHUK5H63BqHQJQWU/T8BasdhAPC9ywQesp0H8OJXBkeUIQcW1g0DVAEjBZwRXQfp+BsHAdyNA
lpc_rms=-35.10
pitch_keycenter=F#4
sample=Trumpet_Trill_Whole_FF_F#4.opus
</region>

<region>
hikey=G5
hivel=127
lokey=F#5
loop_end=155561
loop_mode=loop_continuous
loop_start=66135
loop_xfade=10836
lovel=1
lpc=m+vvQRjSv8L03RZDR+Ufw+iWD0NCwuzCgNewQsgYbMJJdBhC2rivwQKxL0HWIG/A7LcqPtXWcUC3vM7A47vtQDKjjcA/HeE/CGsRP72gfj4STCPAHUW9QD/oo8B2oSdA
lpc_rms=-30.89
pitch_keycenter=F#5
sample=Trumpet_Trill_Whole_FF_F#5.opus
</region>

<region>
hikey=A3
hivel=127
lokey=G#3
loop_end=155223
loop_mode=loop_continuous
loop_start=65992
loop_xfade=10812
lovel=1
lpc=t8YTQoOtCsOfJmpDe51yw6aSPkM9vwjDrm23QirlS8JvscJB8WCCwei8g0FR2WjB0u4gQXha0cCBN79AC8LrwHFB+0CtkJzAb9tkvu6MRkCSBRvA62eHP1JBKr8MELk+
lpc_rms=-37.87
pitch_keycenter=G#3
sample=Trumpet_Trill_Whole_FF_G#3.opus
</region>

<region>
hikey=A4
hivel=127
lokey=G#4
loop_end=154419
loop_mode=loop_continuous
loop_start=65650
loop_xfade=10756
lovel=1
lpc=WtftQRCn5cJR91JD0Kp+w/kAc0NXmUvDtWkYQ6fRz8JsYI1CodQ6woaivkGigubAn+T2v+tPIUFn8VjBic7uQBY3mD8Ua5fAnR5fQOwvZz9sAcnADAILQfOJxMBbK/8/
lpc_rms=-33.48
pitch_keycenter=G#4
sample=Trumpet_Trill_Whole_FF_G#4.opus
</region>

<region>
hikey=A5
hivel=127
lokey=G#5
loop_end=157548
loop_mode=loop_continuous
loop_start=66980
loop_xfade=10974
lovel=1
lpc=kw/XQSztpcIB+vdCT8/uwoqtv0LyY5HC6OZMQirA8MEiepZBMhVdwQTTPEHx1gLBWPC/QEBpO8Aw2MA/1LOQPjtu6zwVpglAxl+iwKkzAkHvI+TAfdb5QKwE4cBMCltA
lpc_rms=-29.30
pitch_keycenter=G#5
sample=Trumpet_Trill_Whole_FF_G#5.opus
</region>
</group>

<group>
group_label=Group_43-86
lpc_hicc1=86
lpc_locc1=43

<region>
hikey=B3
hivel=127
lokey=A#3
loop_end=157817
loop_mode=loop_continuous
loop_start=67094
loop_xfade=10993
lovel=1
lpc=GGknQupKH8MRTIdDZrqKwxSJUUOhRQ7D7Lm6Qo5ZYcJszwlC63TMwaLwr0EPFpPB2exSQVw4FcFzlClBKHJMwdU74UDIiMpATPd/wUu3fEEPFyrB5MS9QLnULsA39UA/
lpc_rms=-38.77
pitch_keycenter=A#3
sample=Trumpet_Trill_Whole_MF_A#3.opus
</region>

<region>
hikey=B4
hivel=127
lokey=A#4
loop_end=155303
loop_mode=loop_continuous
loop_start=66025
loop_xfade=10818
lovel=1
lpc=sbEYQo4aEsOlo4JDhOWWwz5DiEOMT1fD3gUVQ1ghsMKqqERCMC7mwY/4kUFVSovBs82aQQXhVsEj5sBAcv7KwIwYC0GIAbbAD/0wP6fJMEB56rnApN4FQZTx4sBswyhA
lpc_rms=-34.19
pitch_keycenter=A#4
sample=Trumpet_Trill_Whole_MF_A#4.opus
</region>

<region>
hikey=B5
hivel=127
lokey=A#5
loop_end=155783
loop_mode=loop_continuous
loop_start=66230
loop_xfade=10851
lovel=1
lpc=CteyQTybd8JQJ65CxZCiwodshkLi71bCVjMrQrQC9MEFbb9BgSKUwZeEfEFwTTrBWxYmQQEO28AvTolAcNSwvUHNFL+FNDJANDBxwHhKu0DZBp3APT7AQB/LwcDmyUhA
lpc_rms=-28.66
pitch_keycenter=A#5
sample=Trumpet_Trill_Whole_MF_A#5.opus
</region>

<region>
hikey=C#4
hivel=127
lokey=C4
loop_end=155053
loop_mode=loop_continuous
loop_start=65919
loop_xfade=10800
lovel=1
lpc=wrRAQhdPO8Pr0qBDKC2jw47ta0O24xjDIqnFQmBnWcKG/LZBBGobwQmn+0CR5SrBUn9AQasH6MDP1D5AdAW5wP30xkCKxkZAYXc2wViRKkEkkgHB5hcFQT0/08BZmRJA
lpc_rms=-40.07
sample=Trumpet_Trill_Whole_MF_C4.opus
</region>

<region>
hikey=C#5
hivel=127
lokey=C5
loop_end=156270
loop_mode=loop_continuous
loop_start=66437
loop_xfade=10885
lovel=1
lpc=LZ8/QtWQO8P4UqdDkfC1w901jkMFU0DD4JUFQ/zPtMLUjkVCB+28wVRTxkHrEBfCO9cSQkTykcFXfAlAO2DqPwTDXr8N/jFADdixwAOgukCfH/jAZFVgQRbbZcEs5LhA
lpc_rms=-34.06
pitch_keycenter=C5
sample=Trumpet_Trill_Whole_MF_C5.opus
</region>

<region>
hikey=F6
hivel=127
lokey=C6
loop_end=140622
loop_mode=loop_continuous
loop_start=59784
loop_xfade=9795
lovel=1
lpc=eTuXQT4xTMJFEZNC5quLwsx0YUIMaSbCjt/4QU85mcEO7VdB8JsowbueUUE42FbBC4NsQbnKPsEU+hRBbrU3wIIDkz+p9Vq/A8CZQIgN4cDS+fxAReyswA5ECEAiFLw+
lpc_rms=-28.08
pitch_keycenter=C6
sample=Trumpet_Trill_Whole_MF_C6.opus
</region>

<region>
hikey=D#4
hivel=127
lokey=D4
loop_end=154669
loop_mode=loop_continuous
loop_start=65756
loop_xfade=10773
lovel=1
lpc=nL9BQuYrPsPzvqZDKjKvw/gchUPzDzLDz7DjQhxnf8LosfpBLSuHwWcUfUEzkKLBsz6BQU5GoL3vKDLBu+MmQZHhIcE3XmtBzZ+CwbkWVEErXgLByxEqQL/2pD5ri6C+
lpc_rms=-38.26
pitch_keycenter=D4
sample=Trumpet_Trill_Whole_MF_D4.opus
</region>

<region>
hikey=D#5
hivel=127
lokey=D5
loop_end=155777
loop_mode=loop_continuous
loop_start=66227
loop_xfade=10851
lovel=1
lpc=6sYZQi9SC8MT4WdDrpNvwwDYOkOgWAHDVKKqQoZpW8L0kiRCo8sZwocCEUL499vBewxsQUYrk8Dpp9M/vHjrvwtDPr7XlMxAVhNwwbR0wUF8PPTBT877QVqMscELKfdA
lpc_rms=-35.24
pitch_keycenter=D5
sample=Trumpet_Trill_Whole_MF_D5.opus
</region>

<region>
hikey=F4
hivel=127
lokey=E4
loop_end=156711
loop_mode=loop_continuous
loop_start=66624
loop_xfade=10916
lovel=1
lpc=vwNKQijrRsP/Eq9Dpym4w8w9i0Pu2DjD/gTvQsVdi8JSGgRCoVf5wIbsvcDYXOZAAoKswGVy/UDYs8/AyGOBv9v6lz/zWh5BW6qgwbZWtEGQd5nBwChPQd0hxsByXcw/
lpc_rms=-37.72
pitch_keycenter=E4
sample=Trumpet_Trill_Whole_MF_E4.opus
</region>

<region>
hikey=F5
hivel=127
lokey=E5
loop_end=147404
loop_mode=loop_continuous
loop_start=62667
loop_xfade=10267
lovel=1
lpc=Wm4gQvmOC8M5RGVDJUNww7XuREPWnBPDa2/ZQiTfm8K75GRCRe4xwjj3FEIvhO3BNvydQdEjzMCYZ4HAgM0CQfJ9+MBD+xtBrRFYwf/Ai0GIsqfBU/K+QRSKksHVZeVA
lpc_rms=-33.55
pitch_keycenter=E5
sample=Trumpet_Trill_Whole_MF_E5.opus
</region>

<region>
hikey=G3
hivel=127
lokey=F#3
loop_end=153595
loop_mode=loop_continuous
loop_start=65300
loop_xfade=10698
lovel=1
lpc=v9z0QarU1sKciiVDdq4Zw1nZ3kJFWKDC4ftYQuoO3sHJexJBGSeCv003LDxr2l/AGvTzQBK4C8EyNgZB76AIwRgu4UA+ZlfA0EWFP4o6o77MjtK/IrhRQA+CEMB8Mg8/
lpc_rms=-41.64
pitch_keycenter=F#3
sample=Trumpet_Trill_Whole_MF_F#3.opus
</region>

<region>
hikey=G4
hivel=127
lokey=F#4
loop_end=155774
loop_mode=loop_continuous
loop_start=66226
loop_xfade=10850
lovel=1
lpc=RzNCQtiGQMPei6xD8lO8w7SXlEP+50PDVFfqQjUKg8Ip9AhCA9A6wbYtD8C9BGdAWNUvvzHuEEDOqpbAxa6HQKXtjcALpgNBrrZIwTOQZUHSolnBCoY3QTTc7cAa1yFA
lpc_rms=-38.05
pitch_keycenter=F#4
sample=Trumpet_Trill_Whole_MF_F#4.opus
</region>

<region>
hikey=G5
hivel=127
lokey=F#5
loop_end=141164
loop_mode=loop_continuous
loop_start=60014
loop_xfade=9833
lovel=1
lpc=iYPUQWlipsI0/AFDmoMKw684+ELci8rC5WqbQuQ7YsJIJS5CUuYRwkm/AEIsxr7B9BVWQaOtu8CFeeVA4SRAwW4gdEHzQ1DBPkU2QZ4fQMEtdU5Brk0BwZ23DkCcbnA/
lpc_rms=-32.74
pitch_keycenter=F#5
sample=Trumpet_Trill_Whole_MF_F#5.opus
</region>

<region>
hikey=A3
hivel=127
lokey=G#3
loop_end=156520
loop_mode=loop_continuous
loop_start=66543
loop_xfade=10902
lovel=1
lpc=RncvQmyfIsOAuIFDnxxuwzGVIEMCkd7CJb6aQrbFFsJclUtBBEYzwXB/h0E1NpbBVjCHQYN3UcFh+hlBONn2wP4WhEDdIBVA5u+jwNPaKEBw0/e/2PhhQHIpOcBZLWg/
lpc_rms=-40.21
pitch_keycenter=G#3
sample=Trumpet_Trill_Whole_MF_G#3.opus
</region>

<region>
hikey=A4
hivel=127
lokey=G#4
loop_end=156007
loop_mode=loop_continuous
loop_start=66325
loop_xfade=10867
lovel=1
lpc=KwQeQiPhGMO2bYhDnDWbw1oEiUMSJ1LDw2YIQzcRjMJmWgBC/VqEwXQiyEB2GKA/9N7GwNbASEGaw1nBwK+dQKHJd0B5R7TAy3lrQB0wej5QscDAQnoVQQ2V2sDo9gtA
lpc_rms=-36.37
pitch_keycenter=G#4
sample=Trumpet_Trill_Whole_MF_G#4.opus
</region>

<region>
hikey=A5
hivel=127
lokey=G#5
loop_end=157669
loop_mode=loop_continuous
loop_start=67032
loop_xfade=10982
lovel=1
lpc=t3XOQTROnsKRCOxCIiflwr/OvELXtJHC9xBHQtsC1cFGMHVB3E42wXlNF0H0QI3AEFB0P7dJ2z+Bi4a/T7sLPvEtA0AMSZq/q/vHPpxm6D6q2Kw/8CgLP//1NcCJqxNA
lpc_rms=-30.80
pitch_keycenter=G#5
sample=Trumpet_Trill_Whole_MF_G#5.opus
</region>
</group>